<!--?xml version="1.0" standalone="no"?-->
              <svg id="sw-js-blob-svg" viewBox="0 0 100 100" xmlns="http://www.w3.org/2000/svg" version="1.1">
                    <defs> 
                        <linearGradient id="sw-gradient" x1="0" x2="1" y1="1" y2="0">
                            <stop id="stop1" stop-color="rgba(152.956, 55, 248, 1)" offset="0%"></stop>
                            <stop id="stop2" stop-color="rgba(30.314, 255, 243.582, 1)" offset="100%"></stop>
                        </linearGradient>
                    </defs>
                <path fill="url(#sw-gradient)" d="M25.4,-34.9C32.2,-30.1,36.5,-21.7,38.7,-13C40.9,-4.4,41,4.5,37.1,10.8C33.3,17.1,25.7,20.9,18.8,25.6C12,30.3,6,35.8,-1.2,37.4C-8.3,39,-16.6,36.7,-24.3,32.3C-32,27.9,-39,21.4,-41.3,13.6C-43.6,5.8,-41.2,-3.4,-36.8,-10.4C-32.4,-17.4,-26,-22.2,-19.5,-27.1C-13,-32,-6.5,-37.1,1.4,-39C9.3,-40.9,18.6,-39.7,25.4,-34.9Z" width="100%" height="100%" transform="translate(50 50)" stroke-width="0" style="transition: all 0.3s ease 0s;" stroke="url(#sw-gradient)"></path>
              </svg>