<!--?xml version="1.0" standalone="no"?-->
              <svg id="sw-js-blob-svg" viewBox="0 0 100 100" xmlns="http://www.w3.org/2000/svg" version="1.1">
                    <defs> 
                        <linearGradient id="sw-gradient" x1="0" x2="1" y1="1" y2="0">
                            <stop id="stop1" stop-color="rgba(248, 117, 55, 1)" offset="0%"></stop>
                            <stop id="stop2" stop-color="rgba(251, 168, 31, 1)" offset="100%"></stop>
                        </linearGradient>
                    </defs>
                <path fill="url(#sw-gradient)" d="M22.3,-25.9C29.2,-20.7,35.5,-14,36.5,-6.7C37.5,0.7,33.3,8.7,28.9,16.9C24.4,25.1,19.9,33.5,12.3,38.2C4.8,42.8,-5.8,43.7,-14.2,40.2C-22.7,36.6,-29.1,28.6,-33.5,19.9C-37.9,11.2,-40.2,1.8,-39,-7.2C-37.8,-16.2,-33.1,-25,-26,-30.1C-18.9,-35.2,-9.4,-36.7,-0.9,-35.7C7.7,-34.6,15.4,-31,22.3,-25.9Z" width="100%" height="100%" transform="translate(50 50)" stroke-width="0" style="transition: all 0.3s ease 0s;"></path>
              </svg>