<?xml version="1.0" encoding="UTF-8" standalone="no"?>
<!DOCTYPE svg PUBLIC "-//W3C//DTD SVG 1.1//EN" "http://www.w3.org/Graphics/SVG/1.1/DTD/svg11.dtd">
<svg xmlns="http://www.w3.org/2000/svg" version="1.1" viewBox="0.00 0.00 336.00 324.00" width="336.00" height="324.00">
<g stroke-width="2.00" fill="none" stroke-linecap="butt">
<path stroke="#ebb2c4" vector-effect="non-scaling-stroke" d="
  M 81.75 37.71
  Q 78.60 42.32 76.78 46.76
  A 1.58 1.57 18.4 0 0 77.85 48.89
  C 82.36 50.04 86.07 49.58 90.42 49.56
  Q 139.93 49.34 189.44 49.22
  Q 194.07 49.21 197.00 53.29"
/>
<path stroke="#e9b3cb" vector-effect="non-scaling-stroke" d="
  M 197.00 53.29
  L 206.79 70.25"
/>
<path stroke="#e6b5d3" vector-effect="non-scaling-stroke" d="
  M 206.79 70.25
  C 210.84 77.21 214.77 82.02 208.12 89.71
  Q 207.12 90.87 206.31 89.58
  L 198.03 76.40"
/>
<path stroke="#e8b4ce" vector-effect="non-scaling-stroke" d="
  M 198.03 76.40
  C 195.42 70.51 191.21 59.75 184.00 59.75
  Q 128.66 59.75 73.31 59.75
  C 70.85 59.75 68.18 60.84 67.03 62.81
  Q 63.07 69.58 59.25 76.46"
/>
<path stroke="#e6b5d3" vector-effect="non-scaling-stroke" d="
  M 59.25 76.46
  C 57.76 78.82 50.66 87.75 58.07 87.75
  Q 112.58 87.74 167.10 87.75
  C 171.35 87.75 173.75 89.35 175.46 93.00"
/>
<path stroke="#e4b6da" vector-effect="non-scaling-stroke" d="
  M 175.46 93.00
  L 183.63 107.24"
/>
<path stroke="#e1b8e2" vector-effect="non-scaling-stroke" d="
  M 183.63 107.24
  C 187.88 114.15 193.15 119.75 185.90 127.76
  A 1.44 1.44 0.0 0 1 183.58 127.50
  L 175.00 112.46"
/>
<path stroke="#e3b7dd" vector-effect="non-scaling-stroke" d="
  M 175.00 112.46
  C 172.46 107.74 168.27 97.76 162.25 97.76
  Q 106.78 97.73 51.31 98.00
  Q 46.61 98.03 43.97 102.45
  Q 40.73 107.88 37.75 113.46"
/>
<path stroke="#e1b8e2" vector-effect="non-scaling-stroke" d="
  M 37.75 113.46
  L 32.37 123.30
  Q 32.12 123.75 32.41 124.17
  Q 33.51 125.75 35.07 125.75
  Q 89.87 125.73 144.69 125.78
  Q 150.16 125.78 152.73 130.33"
/>
<path stroke="#deb9eb" vector-effect="non-scaling-stroke" d="
  M 152.73 130.33
  Q 159.16 141.44 165.85 153.02
  C 167.12 155.22 168.82 157.17 171.25 157.28
  Q 184.50 157.86 197.76 158.01
  Q 202.02 158.06 204.35 154.08
  Q 211.01 142.73 217.46 131.25"
/>
<path stroke="#e1b8e2" vector-effect="non-scaling-stroke" d="
  M 217.46 131.25
  L 231.75 106.29"
/>
<path stroke="#e4b6da" vector-effect="non-scaling-stroke" d="
  M 231.75 106.29
  L 240.03 91.94"
/>
<path stroke="#e6b5d3" vector-effect="non-scaling-stroke" d="
  M 240.03 91.94
  L 252.54 70.25"
/>
<path stroke="#e9b3cb" vector-effect="non-scaling-stroke" d="
  M 252.54 70.25
  C 253.74 68.33 260.92 56.63 260.40 55.18
  A 2.84 1.94 76.8 0 0 258.30 53.26
  Q 246.84 53.24 235.50 53.27
  Q 231.86 53.28 228.75 51.46"
/>
<path stroke="#ebb2c4" vector-effect="non-scaling-stroke" d="
  M 228.75 51.46
  L 220.50 37.96"
/>
<path stroke="#ecb1bf" vector-effect="non-scaling-stroke" d="
  M 220.50 37.96
  Q 216.78 30.94 212.62 24.15
  Q 210.55 20.77 206.50 20.76
  Q 150.89 20.74 95.27 20.76
  C 92.89 20.76 91.33 21.14 90.10 23.09
  Q 85.63 30.23 81.75 37.71"
/>
<path stroke="#d86484" vector-effect="non-scaling-stroke" d="
  M 220.50 37.96
  Q 217.79 38.39 215.06 38.39
  Q 157.14 38.30 99.21 38.35
  C 94.99 38.35 88.30 37.48 82.67 38.22
  Q 82.30 38.27 82.04 38.00
  L 81.75 37.71"
/>
<path stroke="#d46690" vector-effect="non-scaling-stroke" d="
  M 228.75 51.46
  L 227.75 51.01
  Q 227.19 50.76 227.51 51.29
  L 227.69 51.60
  A 0.35 0.34 74.0 0 1 227.41 52.12
  Q 213.49 52.41 201.82 52.06
  C 199.96 52.01 198.70 52.77 197.00 53.29"
/>
<path stroke="#d0699f" vector-effect="non-scaling-stroke" d="
  M 252.54 70.25
  L 252.18 69.89
  Q 251.96 69.67 252.18 69.44
  L 252.42 69.21
  Q 252.45 69.18 252.40 69.16
  Q 250.62 68.55 248.75 68.54
  Q 231.29 68.45 213.86 68.65
  C 211.01 68.68 209.08 67.76 206.79 70.25"
/>
<path stroke="#cb6cae" vector-effect="non-scaling-stroke" d="
  M 240.03 91.94
  Q 227.12 91.14 214.24 91.45
  C 212.48 91.49 210.32 90.92 208.12 91.60
  Q 207.79 91.70 207.79 91.35
  L 207.79 90.95
  Q 207.79 90.71 207.55 90.67
  C 205.79 90.43 204.67 91.35 203.16 91.37
  Q 190.97 91.56 178.82 91.33
  Q 176.61 91.29 175.46 93.00"
/>
<path stroke="#c66fbd" vector-effect="non-scaling-stroke" d="
  M 231.75 106.29
  L 231.03 106.74
  Q 230.34 107.15 230.75 106.47
  L 230.92 106.19
  Q 231.11 105.87 230.74 105.87
  Q 208.66 105.55 186.58 105.92
  Q 185.65 105.94 185.00 106.30
  Q 184.30 106.70 183.63 107.24"
/>
<path stroke="#cf69a2" vector-effect="non-scaling-stroke" d="
  M 198.03 76.40
  L 62.58 76.68
  Q 62.07 76.68 61.68 77.01
  Q 60.44 78.05 59.25 76.46"
/>
<path stroke="#c072ce" vector-effect="non-scaling-stroke" d="
  M 217.46 131.25
  C 215.78 131.07 214.42 130.60 212.74 130.62
  Q 182.75 131.00 152.73 130.33"
/>
<path stroke="#c56fc0" vector-effect="non-scaling-stroke" d="
  M 175.00 112.46
  Q 173.71 112.80 172.74 113.68
  Q 172.38 114.00 171.90 114.00
  Q 106.84 114.00 41.77 114.00
  C 40.46 114.00 39.14 113.49 37.75 113.46"
/>
<path stroke="#e1b8e4" vector-effect="non-scaling-stroke" d="
  M 246.93 101.17
  L 220.29 147.50"
/>
<path stroke="#d7bff3" vector-effect="non-scaling-stroke" d="
  M 220.29 147.50
  Q 215.33 155.92 210.34 164.33
  C 208.24 167.86 205.66 168.75 201.42 168.75
  Q 188.34 168.74 175.24 168.77
  Q 171.24 168.78 169.13 172.65
  C 164.90 180.43 159.91 187.87 155.48 195.56
  Q 155.24 195.99 155.23 196.49
  C 155.23 199.89 158.65 204.95 160.46 207.66"
/>
<path stroke="#cdc6f3" vector-effect="non-scaling-stroke" d="
  M 160.46 207.66
  L 170.49 225.17"
/>
<path stroke="#c8caf2" vector-effect="non-scaling-stroke" d="
  M 170.49 225.17
  L 179.97 241.59"
/>
<path stroke="#c3cef2" vector-effect="non-scaling-stroke" d="
  M 179.97 241.59
  L 190.00 259.04"
/>
<path stroke="#bed2f2" vector-effect="non-scaling-stroke" d="
  M 190.00 259.04
  Q 200.92 278.50 212.35 297.67
  Q 213.22 299.12 213.91 299.96
  A 1.45 1.45 0.0 0 0 216.28 299.78
  Q 222.54 289.17 228.46 278.74
  C 230.16 275.75 232.15 273.85 235.50 273.77
  Q 243.62 273.57 260.50 273.93
  C 268.57 274.11 270.95 269.82 274.79 262.50"
/>
<path stroke="#c3cef2" vector-effect="non-scaling-stroke" d="
  M 274.79 262.50
  L 286.29 242.50"
/>
<path stroke="#ccc7f3" vector-effect="non-scaling-stroke" d="
  M 286.29 242.50
  L 311.79 198.50"
/>
<path stroke="#d5c0f3" vector-effect="non-scaling-stroke" d="
  M 311.79 198.50
  L 323.81 177.94"
/>
<path stroke="#dcbbf2" vector-effect="non-scaling-stroke" d="
  M 323.81 177.94
  C 325.63 175.22 328.90 170.54 326.96 167.12
  Q 320.98 156.57 314.64 146.19
  C 312.95 143.43 311.17 143.59 309.54 146.30
  Q 300.93 160.64 292.79 175.25"
/>
<path stroke="#d5c0f3" vector-effect="non-scaling-stroke" d="
  M 292.79 175.25
  L 281.29 195.00"
/>
<path stroke="#ccc7f3" vector-effect="non-scaling-stroke" d="
  M 281.29 195.00
  L 253.50 242.71"
/>
<path stroke="#c3cef2" vector-effect="non-scaling-stroke" d="
  M 253.50 242.71
  Q 251.17 245.45 247.49 245.33
  Q 235.47 244.97 223.41 245.27
  C 218.21 245.40 215.07 244.33 212.25 240.21"
/>
<path stroke="#c8caf2" vector-effect="non-scaling-stroke" d="
  M 212.25 240.21
  Q 211.04 238.56 210.76 236.43
  A 1.49 1.49 0.0 0 1 212.24 234.75
  Q 226.68 234.76 241.01 234.73
  C 248.15 234.71 249.22 229.52 252.31 224.83"
/>
<path stroke="#cdc6f3" vector-effect="non-scaling-stroke" d="
  M 252.31 224.83
  L 262.25 207.04"
/>
<path stroke="#d7bff3" vector-effect="non-scaling-stroke" d="
  M 262.25 207.04
  L 292.00 155.79"
/>
<path stroke="#dfb9e9" vector-effect="non-scaling-stroke" d="
  M 292.00 155.79
  Q 298.83 144.73 305.19 133.39
  Q 306.31 131.39 305.06 129.19
  Q 298.71 117.97 291.46 106.22
  A 1.48 1.48 0.0 0 0 289.19 105.92
  Q 288.42 106.63 287.78 107.69
  Q 274.28 130.16 261.27 153.04"
/>
<path stroke="#d7bff3" vector-effect="non-scaling-stroke" d="
  M 261.27 153.04
  Q 246.59 178.44 231.76 203.88
  C 231.27 204.72 230.70 205.09 230.00 205.71"
/>
<path stroke="#cdc6f3" vector-effect="non-scaling-stroke" d="
  M 230.00 205.71
  C 228.84 206.22 227.85 206.71 226.52 206.72
  Q 211.64 206.77 196.75 207.06
  Q 195.38 207.08 192.50 205.04"
/>
<path stroke="#d7bff3" vector-effect="non-scaling-stroke" d="
  M 192.50 205.04
  Q 189.52 202.20 188.39 198.51
  A 1.38 1.37 -8.4 0 1 189.71 196.74
  Q 204.13 196.76 218.51 196.79
  Q 224.26 196.80 226.74 192.47
  Q 239.47 170.24 252.25 148.04"
/>
<path stroke="#e1b8e4" vector-effect="non-scaling-stroke" d="
  M 252.25 148.04
  L 278.45 102.79"
/>
<path stroke="#e5b6d7" vector-effect="non-scaling-stroke" d="
  M 278.45 102.79
  C 279.75 100.66 284.48 93.65 283.10 91.18
  Q 276.55 79.44 269.45 67.96
  A 1.83 1.83 0.0 0 0 266.31 68.00
  L 246.93 101.17"
/>
<path stroke="#c76fbc" vector-effect="non-scaling-stroke" d="
  M 278.45 102.79
  Q 276.58 101.58 274.75 101.53
  C 271.70 101.44 268.95 102.70 266.03 102.58
  Q 261.92 102.40 257.81 102.17
  C 255.28 102.02 252.10 103.02 248.96 101.93
  Q 248.72 101.85 248.59 101.63
  L 248.30 101.13
  Q 248.03 100.68 247.77 101.13
  Q 247.52 101.55 246.93 101.17"
/>
<path stroke="#b878d8" vector-effect="non-scaling-stroke" d="
  M 252.25 148.04
  C 251.90 147.73 251.05 147.92 251.30 148.43
  Q 251.36 148.54 251.26 148.63
  Q 250.58 149.23 250.03 148.76
  Q 249.66 148.44 249.18 148.34
  Q 247.55 148.00 246.75 148.00
  Q 235.50 148.01 224.25 148.00
  C 222.98 147.99 221.64 147.52 220.29 147.50"
/>
<path stroke="#a585e6" vector-effect="non-scaling-stroke" d="
  M 192.50 205.04
  Q 191.38 205.66 191.75 206.64
  Q 191.94 207.15 191.40 207.13
  Q 175.95 206.73 160.46 207.66"
/>
<path stroke="#9690e6" vector-effect="non-scaling-stroke" d="
  M 252.31 224.83
  L 170.49 225.17"
/>
<path stroke="#8c98e5" vector-effect="non-scaling-stroke" d="
  M 212.25 240.21
  L 209.66 240.97
  Q 209.19 241.11 208.70 241.09
  Q 194.34 240.59 179.97 241.59"
/>
<path stroke="#a585e6" vector-effect="non-scaling-stroke" d="
  M 262.25 207.04
  C 252.87 205.98 242.89 206.60 233.38 206.54
  C 232.29 206.53 231.03 206.06 230.00 205.71"
/>
<path stroke="#82a1e5" vector-effect="non-scaling-stroke" d="
  M 274.79 262.50
  Q 274.80 260.65 272.81 260.69
  C 246.04 261.23 219.33 260.17 192.43 260.91
  Q 191.88 260.92 191.62 260.44
  Q 191.09 259.46 190.00 259.04"
/>
<path stroke="#b778dc" vector-effect="non-scaling-stroke" d="
  M 292.00 155.79
  Q 291.89 155.70 291.77 155.62
  Q 291.48 155.44 291.51 155.09
  Q 291.52 154.89 291.59 154.73
  Q 291.68 154.51 291.54 154.31
  Q 290.61 153.06 289.19 153.04
  Q 282.96 152.96 261.27 153.04"
/>
<path stroke="#9095e6" vector-effect="non-scaling-stroke" d="
  M 286.29 242.50
  L 253.50 242.71"
/>
<path stroke="#a188e6" vector-effect="non-scaling-stroke" d="
  M 311.79 198.50
  Q 311.08 197.12 308.80 197.09
  Q 296.07 196.92 283.24 197.02
  Q 282.73 197.03 282.43 196.61
  L 281.29 195.00"
/>
<path stroke="#b17ce6" vector-effect="non-scaling-stroke" d="
  M 323.81 177.94
  Q 320.78 176.67 317.55 176.81
  C 310.90 177.11 304.21 176.87 297.54 176.99
  C 295.58 177.03 294.35 176.23 292.79 175.25"
/>
<path stroke="#dcbbf2" vector-effect="non-scaling-stroke" d="
  M 32.78 153.20
  C 36.06 158.73 40.84 164.76 37.17 169.22"
/>
<path stroke="#d5c0f3" vector-effect="non-scaling-stroke" d="
  M 37.17 169.22
  Q 31.92 179.35 25.88 188.61
  C 21.45 195.39 22.54 200.75 27.00 207.29"
/>
<path stroke="#cbc8f3" vector-effect="non-scaling-stroke" d="
  M 27.00 207.29
  L 46.79 241.25"
/>
<path stroke="#bed2f2" vector-effect="non-scaling-stroke" d="
  M 46.79 241.25
  Q 63.43 270.09 80.14 298.89
  Q 82.10 302.25 84.49 302.26
  C 88.54 302.26 108.75 303.19 110.97 301.18
  Q 112.59 299.72 111.24 297.28
  Q 98.11 273.52 80.04 243.00"
/>
<path stroke="#cbc8f3" vector-effect="non-scaling-stroke" d="
  M 80.04 243.00
  L 58.79 206.25"
/>
<path stroke="#d5c0f3" vector-effect="non-scaling-stroke" d="
  M 58.79 206.25
  C 57.35 203.74 53.24 197.87 54.95 195.00
  Q 62.24 182.78 68.96 170.25"
/>
<path stroke="#dcbbf2" vector-effect="non-scaling-stroke" d="
  M 68.96 170.25
  Q 73.33 163.47 82.27 165.35
  A 0.99 0.99 0.0 0 1 82.91 166.85
  L 81.71 168.75"
/>
<path stroke="#d2c2f3" vector-effect="non-scaling-stroke" d="
  M 81.71 168.75
  Q 74.52 181.41 67.27 194.04
  C 66.27 195.78 66.18 198.19 67.27 200.11
  Q 74.17 212.25 81.29 224.25"
/>
<path stroke="#c8caf2" vector-effect="non-scaling-stroke" d="
  M 81.29 224.25
  L 92.45 243.52"
/>
<path stroke="#c0d0f2" vector-effect="non-scaling-stroke" d="
  M 92.45 243.52
  L 114.50 281.54"
/>
<path stroke="#b9d6f2" vector-effect="non-scaling-stroke" d="
  M 114.50 281.54
  C 116.62 285.38 124.61 301.77 128.75 302.03
  C 130.55 302.15 152.94 303.22 155.62 300.56
  Q 155.98 300.21 155.98 299.72
  C 156.01 295.71 149.66 286.25 146.21 280.50"
/>
<path stroke="#c0d0f2" vector-effect="non-scaling-stroke" d="
  M 146.21 280.50
  L 123.75 241.71"
/>
<path stroke="#c8caf2" vector-effect="non-scaling-stroke" d="
  M 123.75 241.71
  L 114.00 224.71"
/>
<path stroke="#d2c2f3" vector-effect="non-scaling-stroke" d="
  M 114.00 224.71
  Q 107.09 212.57 100.03 200.49
  C 98.16 197.29 99.23 195.06 100.97 192.23
  Q 104.63 186.26 113.54 170.25"
/>
<path stroke="#dcbbf2" vector-effect="non-scaling-stroke" d="
  M 113.54 170.25
  Q 118.02 162.84 126.59 165.65
  Q 127.10 165.82 127.04 166.35
  C 126.66 169.49 123.53 173.66 121.96 176.50"
/>
<path stroke="#d1c3f3" vector-effect="non-scaling-stroke" d="
  M 121.96 176.50
  Q 116.99 184.48 112.58 192.85
  C 109.82 198.10 112.00 200.49 115.08 206.05
  Q 120.33 215.54 126.00 224.79"
/>
<path stroke="#c8caf2" vector-effect="non-scaling-stroke" d="
  M 126.00 224.79
  L 136.97 243.90"
/>
<path stroke="#bed2f2" vector-effect="non-scaling-stroke" d="
  M 136.97 243.90
  Q 153.06 271.80 169.51 299.72
  Q 169.80 300.23 171.39 301.52
  Q 171.78 301.84 172.29 301.87
  C 180.96 302.41 189.50 302.02 198.19 301.94
  Q 199.89 301.92 200.61 300.11
  Q 200.78 299.65 200.61 299.19
  Q 199.15 295.30 197.08 291.70
  Q 183.26 267.65 169.25 243.71"
/>
<path stroke="#c8caf2" vector-effect="non-scaling-stroke" d="
  M 169.25 243.71
  L 157.29 223.00"
/>
<path stroke="#d1c3f3" vector-effect="non-scaling-stroke" d="
  M 157.29 223.00
  L 143.40 198.51
  Q 143.15 198.07 143.18 197.57
  C 143.53 192.72 150.00 184.03 152.54 179.50"
/>
<path stroke="#dcbbf2" vector-effect="non-scaling-stroke" d="
  M 152.54 179.50
  C 154.21 176.93 160.46 167.51 159.50 164.78
  Q 157.89 160.22 152.59 151.62"
/>
<path stroke="#debaec" vector-effect="non-scaling-stroke" d="
  M 152.59 151.62
  C 149.50 145.09 146.52 136.25 138.00 136.24
  Q 83.65 136.22 29.31 136.35
  Q 26.98 136.36 25.66 136.95
  A 1.68 1.67 63.2 0 0 24.89 139.31
  L 32.78 153.20"
/>
<path stroke="#bb76df" vector-effect="non-scaling-stroke" d="
  M 152.59 151.62
  Q 149.53 153.50 146.00 153.28
  Q 143.20 153.10 143.11 153.10
  Q 87.96 153.01 32.78 153.20"
/>
<path stroke="#ad7fe6" vector-effect="non-scaling-stroke" d="
  M 152.54 179.50
  C 142.93 178.53 133.02 179.01 123.35 179.00
  Q 122.87 179.00 122.60 178.60
  Q 121.95 177.66 121.96 176.50"
/>
<path stroke="#af7ee6" vector-effect="non-scaling-stroke" d="
  M 113.54 170.25
  C 110.51 168.26 96.31 169.17 85.61 169.23
  C 84.96 169.24 84.19 168.87 83.55 168.70
  Q 83.09 168.59 82.94 169.04
  Q 82.67 169.81 81.92 169.64
  Q 81.72 169.59 81.71 169.38
  L 81.71 168.75"
/>
<path stroke="#b17ce6" vector-effect="non-scaling-stroke" d="
  M 68.96 170.25
  L 67.07 169.45
  Q 66.61 169.26 66.12 169.26
  L 37.17 169.22"
/>
<path stroke="#9b8de6" vector-effect="non-scaling-stroke" d="
  M 114.00 224.71
  Q 100.01 225.16 86.02 225.01
  C 84.24 224.99 83.01 225.96 81.29 224.25"
/>
<path stroke="#a089e6" vector-effect="non-scaling-stroke" d="
  M 58.79 206.25
  C 58.62 206.65 58.19 206.43 57.95 206.25
  Q 57.82 206.16 57.68 206.20
  Q 56.59 206.52 54.18 206.53
  Q 43.52 206.59 32.87 206.55
  C 31.27 206.54 29.45 207.37 27.53 206.82
  Q 27.23 206.73 27.11 207.02
  L 27.00 207.29"
/>
<path stroke="#9a8ee6" vector-effect="non-scaling-stroke" d="
  M 157.29 223.00
  Q 156.46 225.03 154.99 225.02
  C 145.81 224.96 134.98 226.00 126.00 224.79"
/>
<path stroke="#899be5" vector-effect="non-scaling-stroke" d="
  M 123.75 241.71
  Q 123.36 241.81 123.07 241.69
  Q 122.76 241.56 122.44 241.66
  Q 121.83 241.86 121.97 242.54
  Q 122.11 243.23 121.41 243.24
  L 92.45 243.52"
/>
<path stroke="#899be6" vector-effect="non-scaling-stroke" d="
  M 80.04 243.00
  L 79.78 243.25
  Q 79.46 243.58 79.22 243.18
  L 79.04 242.87
  Q 78.91 242.65 78.80 242.88
  L 78.47 243.56
  Q 78.30 243.92 78.02 243.64
  L 77.77 243.40
  Q 77.53 243.16 77.19 243.16
  L 49.03 243.23
  Q 48.55 243.23 48.30 242.82
  Q 47.75 241.92 46.79 241.25"
/>
<path stroke="#879de5" vector-effect="non-scaling-stroke" d="
  M 169.25 243.71
  Q 169.04 243.93 168.79 243.99
  Q 168.64 244.02 168.53 243.91
  L 168.32 243.69
  Q 168.16 243.53 168.03 243.73
  C 167.90 243.95 167.64 244.13 167.38 244.14
  Q 152.20 244.27 136.97 243.90"
/>
<path stroke="#7aa7e5" vector-effect="non-scaling-stroke" d="
  M 146.21 280.50
  Q 144.70 282.00 143.76 282.00
  Q 130.84 281.99 117.92 282.00
  Q 117.50 282.00 117.17 282.27
  L 116.67 282.68
  Q 116.20 283.06 115.97 282.50
  Q 115.55 281.48 114.50 281.54"
/>
</g>
<path fill="#ffffff" d="
  M 0.00 0.00
  L 336.00 0.00
  L 336.00 324.00
  L 0.00 324.00
  L 0.00 0.00
  Z
  M 81.75 37.71
  Q 78.60 42.32 76.78 46.76
  A 1.58 1.57 18.4 0 0 77.85 48.89
  C 82.36 50.04 86.07 49.58 90.42 49.56
  Q 139.93 49.34 189.44 49.22
  Q 194.07 49.21 197.00 53.29
  L 206.79 70.25
  C 210.84 77.21 214.77 82.02 208.12 89.71
  Q 207.12 90.87 206.31 89.58
  L 198.03 76.40
  C 195.42 70.51 191.21 59.75 184.00 59.75
  Q 128.66 59.75 73.31 59.75
  C 70.85 59.75 68.18 60.84 67.03 62.81
  Q 63.07 69.58 59.25 76.46
  C 57.76 78.82 50.66 87.75 58.07 87.75
  Q 112.58 87.74 167.10 87.75
  C 171.35 87.75 173.75 89.35 175.46 93.00
  L 183.63 107.24
  C 187.88 114.15 193.15 119.75 185.90 127.76
  A 1.44 1.44 0.0 0 1 183.58 127.50
  L 175.00 112.46
  C 172.46 107.74 168.27 97.76 162.25 97.76
  Q 106.78 97.73 51.31 98.00
  Q 46.61 98.03 43.97 102.45
  Q 40.73 107.88 37.75 113.46
  L 32.37 123.30
  Q 32.12 123.75 32.41 124.17
  Q 33.51 125.75 35.07 125.75
  Q 89.87 125.73 144.69 125.78
  Q 150.16 125.78 152.73 130.33
  Q 159.16 141.44 165.85 153.02
  C 167.12 155.22 168.82 157.17 171.25 157.28
  Q 184.50 157.86 197.76 158.01
  Q 202.02 158.06 204.35 154.08
  Q 211.01 142.73 217.46 131.25
  L 231.75 106.29
  L 240.03 91.94
  L 252.54 70.25
  C 253.74 68.33 260.92 56.63 260.40 55.18
  A 2.84 1.94 76.8 0 0 258.30 53.26
  Q 246.84 53.24 235.50 53.27
  Q 231.86 53.28 228.75 51.46
  L 220.50 37.96
  Q 216.78 30.94 212.62 24.15
  Q 210.55 20.77 206.50 20.76
  Q 150.89 20.74 95.27 20.76
  C 92.89 20.76 91.33 21.14 90.10 23.09
  Q 85.63 30.23 81.75 37.71
  Z
  M 246.93 101.17
  L 220.29 147.50
  Q 215.33 155.92 210.34 164.33
  C 208.24 167.86 205.66 168.75 201.42 168.75
  Q 188.34 168.74 175.24 168.77
  Q 171.24 168.78 169.13 172.65
  C 164.90 180.43 159.91 187.87 155.48 195.56
  Q 155.24 195.99 155.23 196.49
  C 155.23 199.89 158.65 204.95 160.46 207.66
  L 170.49 225.17
  L 179.97 241.59
  L 190.00 259.04
  Q 200.92 278.50 212.35 297.67
  Q 213.22 299.12 213.91 299.96
  A 1.45 1.45 0.0 0 0 216.28 299.78
  Q 222.54 289.17 228.46 278.74
  C 230.16 275.75 232.15 273.85 235.50 273.77
  Q 243.62 273.57 260.50 273.93
  C 268.57 274.11 270.95 269.82 274.79 262.50
  L 286.29 242.50
  L 311.79 198.50
  L 323.81 177.94
  C 325.63 175.22 328.90 170.54 326.96 167.12
  Q 320.98 156.57 314.64 146.19
  C 312.95 143.43 311.17 143.59 309.54 146.30
  Q 300.93 160.64 292.79 175.25
  L 281.29 195.00
  L 253.50 242.71
  Q 251.17 245.45 247.49 245.33
  Q 235.47 244.97 223.41 245.27
  C 218.21 245.40 215.07 244.33 212.25 240.21
  Q 211.04 238.56 210.76 236.43
  A 1.49 1.49 0.0 0 1 212.24 234.75
  Q 226.68 234.76 241.01 234.73
  C 248.15 234.71 249.22 229.52 252.31 224.83
  L 262.25 207.04
  L 292.00 155.79
  Q 298.83 144.73 305.19 133.39
  Q 306.31 131.39 305.06 129.19
  Q 298.71 117.97 291.46 106.22
  A 1.48 1.48 0.0 0 0 289.19 105.92
  Q 288.42 106.63 287.78 107.69
  Q 274.28 130.16 261.27 153.04
  Q 246.59 178.44 231.76 203.88
  C 231.27 204.72 230.70 205.09 230.00 205.71
  C 228.84 206.22 227.85 206.71 226.52 206.72
  Q 211.64 206.77 196.75 207.06
  Q 195.38 207.08 192.50 205.04
  Q 189.52 202.20 188.39 198.51
  A 1.38 1.37 -8.4 0 1 189.71 196.74
  Q 204.13 196.76 218.51 196.79
  Q 224.26 196.80 226.74 192.47
  Q 239.47 170.24 252.25 148.04
  L 278.45 102.79
  C 279.75 100.66 284.48 93.65 283.10 91.18
  Q 276.55 79.44 269.45 67.96
  A 1.83 1.83 0.0 0 0 266.31 68.00
  L 246.93 101.17
  Z
  M 32.78 153.20
  C 36.06 158.73 40.84 164.76 37.17 169.22
  Q 31.92 179.35 25.88 188.61
  C 21.45 195.39 22.54 200.75 27.00 207.29
  L 46.79 241.25
  Q 63.43 270.09 80.14 298.89
  Q 82.10 302.25 84.49 302.26
  C 88.54 302.26 108.75 303.19 110.97 301.18
  Q 112.59 299.72 111.24 297.28
  Q 98.11 273.52 80.04 243.00
  L 58.79 206.25
  C 57.35 203.74 53.24 197.87 54.95 195.00
  Q 62.24 182.78 68.96 170.25
  Q 73.33 163.47 82.27 165.35
  A 0.99 0.99 0.0 0 1 82.91 166.85
  L 81.71 168.75
  Q 74.52 181.41 67.27 194.04
  C 66.27 195.78 66.18 198.19 67.27 200.11
  Q 74.17 212.25 81.29 224.25
  L 92.45 243.52
  L 114.50 281.54
  C 116.62 285.38 124.61 301.77 128.75 302.03
  C 130.55 302.15 152.94 303.22 155.62 300.56
  Q 155.98 300.21 155.98 299.72
  C 156.01 295.71 149.66 286.25 146.21 280.50
  L 123.75 241.71
  L 114.00 224.71
  Q 107.09 212.57 100.03 200.49
  C 98.16 197.29 99.23 195.06 100.97 192.23
  Q 104.63 186.26 113.54 170.25
  Q 118.02 162.84 126.59 165.65
  Q 127.10 165.82 127.04 166.35
  C 126.66 169.49 123.53 173.66 121.96 176.50
  Q 116.99 184.48 112.58 192.85
  C 109.82 198.10 112.00 200.49 115.08 206.05
  Q 120.33 215.54 126.00 224.79
  L 136.97 243.90
  Q 153.06 271.80 169.51 299.72
  Q 169.80 300.23 171.39 301.52
  Q 171.78 301.84 172.29 301.87
  C 180.96 302.41 189.50 302.02 198.19 301.94
  Q 199.89 301.92 200.61 300.11
  Q 200.78 299.65 200.61 299.19
  Q 199.15 295.30 197.08 291.70
  Q 183.26 267.65 169.25 243.71
  L 157.29 223.00
  L 143.40 198.51
  Q 143.15 198.07 143.18 197.57
  C 143.53 192.72 150.00 184.03 152.54 179.50
  C 154.21 176.93 160.46 167.51 159.50 164.78
  Q 157.89 160.22 152.59 151.62
  C 149.50 145.09 146.52 136.25 138.00 136.24
  Q 83.65 136.22 29.31 136.35
  Q 26.98 136.36 25.66 136.95
  A 1.68 1.67 63.2 0 0 24.89 139.31
  L 32.78 153.20
  Z"
/>
<path fill="#d9637f" d="
  M 220.50 37.96
  Q 217.79 38.39 215.06 38.39
  Q 157.14 38.30 99.21 38.35
  C 94.99 38.35 88.30 37.48 82.67 38.22
  Q 82.30 38.27 82.04 38.00
  L 81.75 37.71
  Q 85.63 30.23 90.10 23.09
  C 91.33 21.14 92.89 20.76 95.27 20.76
  Q 150.89 20.74 206.50 20.76
  Q 210.55 20.77 212.62 24.15
  Q 216.78 30.94 220.50 37.96
  Z"
/>
<path fill="#d66589" d="
  M 81.75 37.71
  L 82.04 38.00
  Q 82.30 38.27 82.67 38.22
  C 88.30 37.48 94.99 38.35 99.21 38.35
  Q 157.14 38.30 215.06 38.39
  Q 217.79 38.39 220.50 37.96
  L 228.75 51.46
  L 227.75 51.01
  Q 227.19 50.76 227.51 51.29
  L 227.69 51.60
  A 0.35 0.34 74.0 0 1 227.41 52.12
  Q 213.49 52.41 201.82 52.06
  C 199.96 52.01 198.70 52.77 197.00 53.29
  Q 194.07 49.21 189.44 49.22
  Q 139.93 49.34 90.42 49.56
  C 86.07 49.58 82.36 50.04 77.85 48.89
  A 1.58 1.57 18.4 0 1 76.78 46.76
  Q 78.60 42.32 81.75 37.71
  Z"
/>
<path fill="#d26796" d="
  M 228.75 51.46
  Q 231.86 53.28 235.50 53.27
  Q 246.84 53.24 258.30 53.26
  A 2.84 1.94 76.8 0 1 260.40 55.18
  C 260.92 56.63 253.74 68.33 252.54 70.25
  L 252.18 69.89
  Q 251.96 69.67 252.18 69.44
  L 252.42 69.21
  Q 252.45 69.18 252.40 69.16
  Q 250.62 68.55 248.75 68.54
  Q 231.29 68.45 213.86 68.65
  C 211.01 68.68 209.08 67.76 206.79 70.25
  L 197.00 53.29
  C 198.70 52.77 199.96 52.01 201.82 52.06
  Q 213.49 52.41 227.41 52.12
  A 0.35 0.34 74.0 0 0 227.69 51.60
  L 227.51 51.29
  Q 227.19 50.76 227.75 51.01
  L 228.75 51.46
  Z"
/>
<path fill="#d0689d" d="
  M 198.03 76.40
  L 62.58 76.68
  Q 62.07 76.68 61.68 77.01
  Q 60.44 78.05 59.25 76.46
  Q 63.07 69.58 67.03 62.81
  C 68.18 60.84 70.85 59.75 73.31 59.75
  Q 128.66 59.75 184.00 59.75
  C 191.21 59.75 195.42 70.51 198.03 76.40
  Z"
/>
<path fill="#cb6cae" d="
  M 278.45 102.79
  Q 276.58 101.58 274.75 101.53
  C 271.70 101.44 268.95 102.70 266.03 102.58
  Q 261.92 102.40 257.81 102.17
  C 255.28 102.02 252.10 103.02 248.96 101.93
  Q 248.72 101.85 248.59 101.63
  L 248.30 101.13
  Q 248.03 100.68 247.77 101.13
  Q 247.52 101.55 246.93 101.17
  L 266.31 68.00
  A 1.83 1.83 0.0 0 1 269.45 67.96
  Q 276.55 79.44 283.10 91.18
  C 284.48 93.65 279.75 100.66 278.45 102.79
  Z"
/>
<path fill="#cd6aa7" d="
  M 252.54 70.25
  L 240.03 91.94
  Q 227.12 91.14 214.24 91.45
  C 212.48 91.49 210.32 90.92 208.12 91.60
  Q 207.79 91.70 207.79 91.35
  L 207.79 90.95
  Q 207.79 90.71 207.55 90.67
  C 205.79 90.43 204.67 91.35 203.16 91.37
  Q 190.97 91.56 178.82 91.33
  Q 176.61 91.29 175.46 93.00
  C 173.75 89.35 171.35 87.75 167.10 87.75
  Q 112.58 87.74 58.07 87.75
  C 50.66 87.75 57.76 78.82 59.25 76.46
  Q 60.44 78.05 61.68 77.01
  Q 62.07 76.68 62.58 76.68
  L 198.03 76.40
  L 206.31 89.58
  Q 207.12 90.87 208.12 89.71
  C 214.77 82.02 210.84 77.21 206.79 70.25
  C 209.08 67.76 211.01 68.68 213.86 68.65
  Q 231.29 68.45 248.75 68.54
  Q 250.62 68.55 252.40 69.16
  Q 252.45 69.18 252.42 69.21
  L 252.18 69.44
  Q 251.96 69.67 252.18 69.89
  L 252.54 70.25
  Z"
/>
<path fill="#c86db4" d="
  M 240.03 91.94
  L 231.75 106.29
  L 231.03 106.74
  Q 230.34 107.15 230.75 106.47
  L 230.92 106.19
  Q 231.11 105.87 230.74 105.87
  Q 208.66 105.55 186.58 105.92
  Q 185.65 105.94 185.00 106.30
  Q 184.30 106.70 183.63 107.24
  L 175.46 93.00
  Q 176.61 91.29 178.82 91.33
  Q 190.97 91.56 203.16 91.37
  C 204.67 91.35 205.79 90.43 207.55 90.67
  Q 207.79 90.71 207.79 90.95
  L 207.79 91.35
  Q 207.79 91.70 208.12 91.60
  C 210.32 90.92 212.48 91.49 214.24 91.45
  Q 227.12 91.14 240.03 91.94
  Z"
/>
<path fill="#c66ebb" d="
  M 175.00 112.46
  Q 173.71 112.80 172.74 113.68
  Q 172.38 114.00 171.90 114.00
  Q 106.84 114.00 41.77 114.00
  C 40.46 114.00 39.14 113.49 37.75 113.46
  Q 40.73 107.88 43.97 102.45
  Q 46.61 98.03 51.31 98.00
  Q 106.78 97.73 162.25 97.76
  C 168.27 97.76 172.46 107.74 175.00 112.46
  Z"
/>
<path fill="#c271c9" d="
  M 278.45 102.79
  L 252.25 148.04
  C 251.90 147.73 251.05 147.92 251.30 148.43
  Q 251.36 148.54 251.26 148.63
  Q 250.58 149.23 250.03 148.76
  Q 249.66 148.44 249.18 148.34
  Q 247.55 148.00 246.75 148.00
  Q 235.50 148.01 224.25 148.00
  C 222.98 147.99 221.64 147.52 220.29 147.50
  L 246.93 101.17
  Q 247.52 101.55 247.77 101.13
  Q 248.03 100.68 248.30 101.13
  L 248.59 101.63
  Q 248.72 101.85 248.96 101.93
  C 252.10 103.02 255.28 102.02 257.81 102.17
  Q 261.92 102.40 266.03 102.58
  C 268.95 102.70 271.70 101.44 274.75 101.53
  Q 276.58 101.58 278.45 102.79
  Z"
/>
<path fill="#c370c5" d="
  M 231.75 106.29
  L 217.46 131.25
  C 215.78 131.07 214.42 130.60 212.74 130.62
  Q 182.75 131.00 152.73 130.33
  Q 150.16 125.78 144.69 125.78
  Q 89.87 125.73 35.07 125.75
  Q 33.51 125.75 32.41 124.17
  Q 32.12 123.75 32.37 123.30
  L 37.75 113.46
  C 39.14 113.49 40.46 114.00 41.77 114.00
  Q 106.84 114.00 171.90 114.00
  Q 172.38 114.00 172.74 113.68
  Q 173.71 112.80 175.00 112.46
  L 183.58 127.50
  A 1.44 1.44 0.0 0 0 185.90 127.76
  C 193.15 119.75 187.88 114.15 183.63 107.24
  Q 184.30 106.70 185.00 106.30
  Q 185.65 105.94 186.58 105.92
  Q 208.66 105.55 230.74 105.87
  Q 231.11 105.87 230.92 106.19
  L 230.75 106.47
  Q 230.34 107.15 231.03 106.74
  L 231.75 106.29
  Z"
/>
<path fill="#bf72d2" d="
  M 292.00 155.79
  Q 291.89 155.70 291.77 155.62
  Q 291.48 155.44 291.51 155.09
  Q 291.52 154.89 291.59 154.73
  Q 291.68 154.51 291.54 154.31
  Q 290.61 153.06 289.19 153.04
  Q 282.96 152.96 261.27 153.04
  Q 274.28 130.16 287.78 107.69
  Q 288.42 106.63 289.19 105.92
  A 1.48 1.48 0.0 0 1 291.46 106.22
  Q 298.71 117.97 305.06 129.19
  Q 306.31 131.39 305.19 133.39
  Q 298.83 144.73 292.00 155.79
  Z"
/>
<path fill="#bd73d7" d="
  M 152.73 130.33
  Q 182.75 131.00 212.74 130.62
  C 214.42 130.60 215.78 131.07 217.46 131.25
  Q 211.01 142.73 204.35 154.08
  Q 202.02 158.06 197.76 158.01
  Q 184.50 157.86 171.25 157.28
  C 168.82 157.17 167.12 155.22 165.85 153.02
  Q 159.16 141.44 152.73 130.33
  Z"
/>
<path fill="#bd74d9" d="
  M 152.59 151.62
  Q 149.53 153.50 146.00 153.28
  Q 143.20 153.10 143.11 153.10
  Q 87.96 153.01 32.78 153.20
  L 24.89 139.31
  A 1.68 1.67 63.2 0 1 25.66 136.95
  Q 26.98 136.36 29.31 136.35
  Q 83.65 136.22 138.00 136.24
  C 146.52 136.25 149.50 145.09 152.59 151.62
  Z"
/>
<path fill="#b877e5" d="
  M 323.81 177.94
  Q 320.78 176.67 317.55 176.81
  C 310.90 177.11 304.21 176.87 297.54 176.99
  C 295.58 177.03 294.35 176.23 292.79 175.25
  Q 300.93 160.64 309.54 146.30
  C 311.17 143.59 312.95 143.43 314.64 146.19
  Q 320.98 156.57 326.96 167.12
  C 328.90 170.54 325.63 175.22 323.81 177.94
  Z"
/>
<path fill="#ae7ee6" d="
  M 252.25 148.04
  Q 239.47 170.24 226.74 192.47
  Q 224.26 196.80 218.51 196.79
  Q 204.13 196.76 189.71 196.74
  A 1.38 1.37 -8.4 0 0 188.39 198.51
  Q 189.52 202.20 192.50 205.04
  Q 191.38 205.66 191.75 206.64
  Q 191.94 207.15 191.40 207.13
  Q 175.95 206.73 160.46 207.66
  C 158.65 204.95 155.23 199.89 155.23 196.49
  Q 155.24 195.99 155.48 195.56
  C 159.91 187.87 164.90 180.43 169.13 172.65
  Q 171.24 168.78 175.24 168.77
  Q 188.34 168.74 201.42 168.75
  C 205.66 168.75 208.24 167.86 210.34 164.33
  Q 215.33 155.92 220.29 147.50
  C 221.64 147.52 222.98 147.99 224.25 148.00
  Q 235.50 148.01 246.75 148.00
  Q 247.55 148.00 249.18 148.34
  Q 249.66 148.44 250.03 148.76
  Q 250.58 149.23 251.26 148.63
  Q 251.36 148.54 251.30 148.43
  C 251.05 147.92 251.90 147.73 252.25 148.04
  Z"
/>
<path fill="#b877e5" d="
  M 152.59 151.62
  Q 157.89 160.22 159.50 164.78
  C 160.46 167.51 154.21 176.93 152.54 179.50
  C 142.93 178.53 133.02 179.01 123.35 179.00
  Q 122.87 179.00 122.60 178.60
  Q 121.95 177.66 121.96 176.50
  C 123.53 173.66 126.66 169.49 127.04 166.35
  Q 127.10 165.82 126.59 165.65
  Q 118.02 162.84 113.54 170.25
  C 110.51 168.26 96.31 169.17 85.61 169.23
  C 84.96 169.24 84.19 168.87 83.55 168.70
  Q 83.09 168.59 82.94 169.04
  Q 82.67 169.81 81.92 169.64
  Q 81.72 169.59 81.71 169.38
  L 81.71 168.75
  L 82.91 166.85
  A 0.99 0.99 0.0 0 0 82.27 165.35
  Q 73.33 163.47 68.96 170.25
  L 67.07 169.45
  Q 66.61 169.26 66.12 169.26
  L 37.17 169.22
  C 40.84 164.76 36.06 158.73 32.78 153.20
  Q 87.96 153.01 143.11 153.10
  Q 143.20 153.10 146.00 153.28
  Q 149.53 153.50 152.59 151.62
  Z"
/>
<path fill="#ae7ee6" d="
  M 261.27 153.04
  Q 282.96 152.96 289.19 153.04
  Q 290.61 153.06 291.54 154.31
  Q 291.68 154.51 291.59 154.73
  Q 291.52 154.89 291.51 155.09
  Q 291.48 155.44 291.77 155.62
  Q 291.89 155.70 292.00 155.79
  L 262.25 207.04
  C 252.87 205.98 242.89 206.60 233.38 206.54
  C 232.29 206.53 231.03 206.06 230.00 205.71
  C 230.70 205.09 231.27 204.72 231.76 203.88
  Q 246.59 178.44 261.27 153.04
  Z"
/>
<path fill="#aa81e6" d="
  M 68.96 170.25
  Q 62.24 182.78 54.95 195.00
  C 53.24 197.87 57.35 203.74 58.79 206.25
  C 58.62 206.65 58.19 206.43 57.95 206.25
  Q 57.82 206.16 57.68 206.20
  Q 56.59 206.52 54.18 206.53
  Q 43.52 206.59 32.87 206.55
  C 31.27 206.54 29.45 207.37 27.53 206.82
  Q 27.23 206.73 27.11 207.02
  L 27.00 207.29
  C 22.54 200.75 21.45 195.39 25.88 188.61
  Q 31.92 179.35 37.17 169.22
  L 66.12 169.26
  Q 66.61 169.26 67.07 169.45
  L 68.96 170.25
  Z"
/>
<path fill="#a585e6" d="
  M 113.54 170.25
  Q 104.63 186.26 100.97 192.23
  C 99.23 195.06 98.16 197.29 100.03 200.49
  Q 107.09 212.57 114.00 224.71
  Q 100.01 225.16 86.02 225.01
  C 84.24 224.99 83.01 225.96 81.29 224.25
  Q 74.17 212.25 67.27 200.11
  C 66.18 198.19 66.27 195.78 67.27 194.04
  Q 74.52 181.41 81.71 168.75
  L 81.71 169.38
  Q 81.72 169.59 81.92 169.64
  Q 82.67 169.81 82.94 169.04
  Q 83.09 168.59 83.55 168.70
  C 84.19 168.87 84.96 169.24 85.61 169.23
  C 96.31 169.17 110.51 168.26 113.54 170.25
  Z"
/>
<path fill="#aa81e6" d="
  M 292.79 175.25
  C 294.35 176.23 295.58 177.03 297.54 176.99
  C 304.21 176.87 310.90 177.11 317.55 176.81
  Q 320.78 176.67 323.81 177.94
  L 311.79 198.50
  Q 311.08 197.12 308.80 197.09
  Q 296.07 196.92 283.24 197.02
  Q 282.73 197.03 282.43 196.61
  L 281.29 195.00
  L 292.79 175.25
  Z"
/>
<path fill="#a287e6" d="
  M 121.96 176.50
  Q 121.95 177.66 122.60 178.60
  Q 122.87 179.00 123.35 179.00
  C 133.02 179.01 142.93 178.53 152.54 179.50
  C 150.00 184.03 143.53 192.72 143.18 197.57
  Q 143.15 198.07 143.40 198.51
  L 157.29 223.00
  Q 156.46 225.03 154.99 225.02
  C 145.81 224.96 134.98 226.00 126.00 224.79
  Q 120.33 215.54 115.08 206.05
  C 112.00 200.49 109.82 198.10 112.58 192.85
  Q 116.99 184.48 121.96 176.50
  Z"
/>
<path fill="#988ee6" d="
  M 281.29 195.00
  L 282.43 196.61
  Q 282.73 197.03 283.24 197.02
  Q 296.07 196.92 308.80 197.09
  Q 311.08 197.12 311.79 198.50
  L 286.29 242.50
  L 253.50 242.71
  L 281.29 195.00
  Z"
/>
<path fill="#9b8ce6" d="
  M 192.50 205.04
  Q 195.38 207.08 196.75 207.06
  Q 211.64 206.77 226.52 206.72
  C 227.85 206.71 228.84 206.22 230.00 205.71
  C 231.03 206.06 232.29 206.53 233.38 206.54
  C 242.89 206.60 252.87 205.98 262.25 207.04
  L 252.31 224.83
  L 170.49 225.17
  L 160.46 207.66
  Q 175.95 206.73 191.40 207.13
  Q 191.94 207.15 191.75 206.64
  Q 191.38 205.66 192.50 205.04
  Z"
/>
<path fill="#9690e6" d="
  M 58.79 206.25
  L 80.04 243.00
  L 79.78 243.25
  Q 79.46 243.58 79.22 243.18
  L 79.04 242.87
  Q 78.91 242.65 78.80 242.88
  L 78.47 243.56
  Q 78.30 243.92 78.02 243.64
  L 77.77 243.40
  Q 77.53 243.16 77.19 243.16
  L 49.03 243.23
  Q 48.55 243.23 48.30 242.82
  Q 47.75 241.92 46.79 241.25
  L 27.00 207.29
  L 27.11 207.02
  Q 27.23 206.73 27.53 206.82
  C 29.45 207.37 31.27 206.54 32.87 206.55
  Q 43.52 206.59 54.18 206.53
  Q 56.59 206.52 57.68 206.20
  Q 57.82 206.16 57.95 206.25
  C 58.19 206.43 58.62 206.65 58.79 206.25
  Z"
/>
<path fill="#9194e5" d="
  M 157.29 223.00
  L 169.25 243.71
  Q 169.04 243.93 168.79 243.99
  Q 168.64 244.02 168.53 243.91
  L 168.32 243.69
  Q 168.16 243.53 168.03 243.73
  C 167.90 243.95 167.64 244.13 167.38 244.14
  Q 152.20 244.27 136.97 243.90
  L 126.00 224.79
  C 134.98 226.00 145.81 224.96 154.99 225.02
  Q 156.46 225.03 157.29 223.00
  Z"
/>
<path fill="#9194e5" d="
  M 81.29 224.25
  C 83.01 225.96 84.24 224.99 86.02 225.01
  Q 100.01 225.16 114.00 224.71
  L 123.75 241.71
  Q 123.36 241.81 123.07 241.69
  Q 122.76 241.56 122.44 241.66
  Q 121.83 241.86 121.97 242.54
  Q 122.11 243.23 121.41 243.24
  L 92.45 243.52
  L 81.29 224.25
  Z"
/>
<path fill="#9194e5" d="
  M 252.31 224.83
  C 249.22 229.52 248.15 234.71 241.01 234.73
  Q 226.68 234.76 212.24 234.75
  A 1.49 1.49 0.0 0 0 210.76 236.43
  Q 211.04 238.56 212.25 240.21
  L 209.66 240.97
  Q 209.19 241.11 208.70 241.09
  Q 194.34 240.59 179.97 241.59
  L 170.49 225.17
  L 252.31 224.83
  Z"
/>
<path fill="#879ce5" d="
  M 212.25 240.21
  C 215.07 244.33 218.21 245.40 223.41 245.27
  Q 235.47 244.97 247.49 245.33
  Q 251.17 245.45 253.50 242.71
  L 286.29 242.50
  L 274.79 262.50
  Q 274.80 260.65 272.81 260.69
  C 246.04 261.23 219.33 260.17 192.43 260.91
  Q 191.88 260.92 191.62 260.44
  Q 191.09 259.46 190.00 259.04
  L 179.97 241.59
  Q 194.34 240.59 208.70 241.09
  Q 209.19 241.11 209.66 240.97
  L 212.25 240.21
  Z"
/>
<path fill="#7ca5e5" d="
  M 46.79 241.25
  Q 47.75 241.92 48.30 242.82
  Q 48.55 243.23 49.03 243.23
  L 77.19 243.16
  Q 77.53 243.16 77.77 243.40
  L 78.02 243.64
  Q 78.30 243.92 78.47 243.56
  L 78.80 242.88
  Q 78.91 242.65 79.04 242.87
  L 79.22 243.18
  Q 79.46 243.58 79.78 243.25
  L 80.04 243.00
  Q 98.11 273.52 111.24 297.28
  Q 112.59 299.72 110.97 301.18
  C 108.75 303.19 88.54 302.26 84.49 302.26
  Q 82.10 302.25 80.14 298.89
  Q 63.43 270.09 46.79 241.25
  Z"
/>
<path fill="#81a1e5" d="
  M 123.75 241.71
  L 146.21 280.50
  Q 144.70 282.00 143.76 282.00
  Q 130.84 281.99 117.92 282.00
  Q 117.50 282.00 117.17 282.27
  L 116.67 282.68
  Q 116.20 283.06 115.97 282.50
  Q 115.55 281.48 114.50 281.54
  L 92.45 243.52
  L 121.41 243.24
  Q 122.11 243.23 121.97 242.54
  Q 121.83 241.86 122.44 241.66
  Q 122.76 241.56 123.07 241.69
  Q 123.36 241.81 123.75 241.71
  Z"
/>
<path fill="#7ca5e5" d="
  M 169.25 243.71
  Q 183.26 267.65 197.08 291.70
  Q 199.15 295.30 200.61 299.19
  Q 200.78 299.65 200.61 300.11
  Q 199.89 301.92 198.19 301.94
  C 189.50 302.02 180.96 302.41 172.29 301.87
  Q 171.78 301.84 171.39 301.52
  Q 169.80 300.23 169.51 299.72
  Q 153.06 271.80 136.97 243.90
  Q 152.20 244.27 167.38 244.14
  C 167.64 244.13 167.90 243.95 168.03 243.73
  Q 168.16 243.53 168.32 243.69
  L 168.53 243.91
  Q 168.64 244.02 168.79 243.99
  Q 169.04 243.93 169.25 243.71
  Z"
/>
<path fill="#7ca5e5" d="
  M 190.00 259.04
  Q 191.09 259.46 191.62 260.44
  Q 191.88 260.92 192.43 260.91
  C 219.33 260.17 246.04 261.23 272.81 260.69
  Q 274.80 260.65 274.79 262.50
  C 270.95 269.82 268.57 274.11 260.50 273.93
  Q 243.62 273.57 235.50 273.77
  C 232.15 273.85 230.16 275.75 228.46 278.74
  Q 222.54 289.17 216.28 299.78
  A 1.45 1.45 0.0 0 1 213.91 299.96
  Q 213.22 299.12 212.35 297.67
  Q 200.92 278.50 190.00 259.04
  Z"
/>
<path fill="#72ade5" d="
  M 146.21 280.50
  C 149.66 286.25 156.01 295.71 155.98 299.72
  Q 155.98 300.21 155.62 300.56
  C 152.94 303.22 130.55 302.15 128.75 302.03
  C 124.61 301.77 116.62 285.38 114.50 281.54
  Q 115.55 281.48 115.97 282.50
  Q 116.20 283.06 116.67 282.68
  L 117.17 282.27
  Q 117.50 282.00 117.92 282.00
  Q 130.84 281.99 143.76 282.00
  Q 144.70 282.00 146.21 280.50
  Z"
/>
</svg>
